<?xml version="1.0" standalone="no"?>
<!DOCTYPE svg PUBLIC "-//W3C//DTD SVG 20010904//EN"
 "http://www.w3.org/TR/2001/REC-SVG-20010904/DTD/svg10.dtd">
<svg version="1.0" xmlns="http://www.w3.org/2000/svg"
 width="512.000000pt" height="512.000000pt" viewBox="0 0 512.000000 512.000000"
 preserveAspectRatio="xMidYMid meet">

<g transform="translate(0.000000,512.000000) scale(0.100000,-0.100000)"
fill="#000000" stroke="none">
<path d="M2449 5102 c-202 -67 -304 -265 -247 -480 2 -8 -213 -150 -541 -357
l-545 -345 -145 0 c-80 0 -190 -5 -244 -10 -334 -33 -605 -260 -699 -587 l-23
-78 0 -1285 c0 -1400 -3 -1307 55 -1462 66 -178 260 -372 438 -438 157 -59 2
-55 2062 -55 2060 0 1905 -4 2062 55 190 71 377 267 449 469 51 144 50 137 47
1476 l-3 1250 -23 73 c-77 249 -252 443 -481 531 -115 44 -176 53 -406 60
l-210 6 -543 344 c-298 188 -540 347 -537 352 4 5 10 35 15 66 27 164 -75 345
-228 404 -79 30 -182 34 -253 11z m209 -158 c214 -106 140 -424 -98 -424 -189
0 -292 213 -176 364 34 46 117 86 176 86 30 0 65 -9 98 -26z m-330 -494 c89
-71 225 -98 333 -67 45 14 112 51 163 90 7 5 182 -99 452 -270 l440 -278 -260
-5 c-266 -5 -296 -10 -310 -46 -10 -26 -7 -59 8 -80 14 -18 36 -19 638 -25
697 -6 685 -5 827 -79 176 -92 295 -249 335 -443 14 -67 16 -227 16 -1287 l0
-1210 -1819 0 c-1753 0 -1820 -1 -1842 -18 -30 -25 -30 -75 0 -105 l22 -22
1805 -5 1805 -5 -42 -85 c-84 -170 -261 -307 -444 -345 -105 -22 -3685 -22
-3790 0 -183 38 -360 175 -444 345 l-42 85 429 5 c405 5 431 6 451 24 27 25
28 79 1 106 -19 19 -33 20 -465 20 l-445 0 0 1216 c0 1087 2 1223 16 1287 44
193 162 347 335 437 150 78 73 74 1301 77 l1097 4 21 26 c26 34 25 56 -4 90
l-24 28 -747 3 -748 2 443 280 c244 154 445 280 447 280 2 0 21 -13 41 -30z"/>
<path d="M3673 3528 c-44 -21 -47 -56 -13 -143 16 -44 30 -82 30 -86 0 -3 -37
-20 -83 -37 -46 -17 -104 -46 -131 -63 -115 -77 -184 -240 -156 -374 13 -62
182 -505 211 -551 25 -40 107 -117 148 -139 60 -30 166 -47 230 -35 79 14 515
184 573 223 118 80 188 243 159 376 -12 55 -166 463 -200 528 -36 71 -89 121
-169 160 -71 35 -82 38 -161 37 -83 0 -124 -11 -262 -68 -12 -5 -22 9 -43 66
-40 104 -77 133 -133 106z m510 -264 c90 -31 113 -66 218 -336 79 -205 94
-252 93 -298 0 -84 -49 -161 -124 -200 -19 -9 -132 -55 -250 -100 -179 -69
-224 -83 -271 -82 -85 0 -160 46 -199 122 -9 19 -55 132 -100 250 -92 236
-101 289 -66 361 38 80 72 101 312 194 306 118 303 118 387 89z"/>
<path d="M3896 2971 c-151 -59 -186 -82 -186 -125 0 -30 25 -63 55 -70 33 -8
333 105 358 135 37 45 3 120 -54 118 -13 0 -91 -26 -173 -58z"/>
<path d="M4005 2690 c-153 -60 -185 -81 -185 -127 0 -28 41 -73 67 -73 36 0
328 119 346 141 9 12 17 32 17 46 0 31 -42 73 -72 72 -13 0 -90 -26 -173 -59z"/>
<path d="M1392 3293 c-11 -10 -32 -51 -47 -90 -15 -40 -30 -73 -33 -73 -4 0
-52 16 -107 36 -90 32 -108 35 -180 32 -106 -6 -186 -41 -253 -112 -63 -66
-62 -65 -173 -351 -91 -235 -93 -242 -93 -325 0 -106 26 -178 91 -250 62 -69
92 -85 363 -191 195 -76 247 -92 307 -96 130 -10 261 50 335 153 17 23 73 151
125 285 89 227 96 250 101 330 10 187 -80 316 -270 389 -46 18 -87 36 -92 40
-5 5 3 37 18 74 14 37 26 80 26 96 0 60 -73 92 -118 53z m-74 -330 c253 -98
305 -127 339 -192 43 -82 35 -132 -62 -385 -103 -268 -122 -301 -194 -338 -88
-46 -117 -42 -389 63 -130 50 -253 103 -272 118 -55 43 -84 105 -85 176 0 52
12 90 84 275 99 256 110 279 153 315 95 80 142 77 426 -32z"/>
<path d="M1026 2778 c-29 -41 -19 -91 23 -112 60 -32 295 -116 321 -116 19 0
36 9 49 26 51 64 16 99 -167 169 -159 61 -202 67 -226 33z"/>
<path d="M920 2500 c-25 -25 -26 -74 -1 -99 24 -24 273 -122 327 -128 36 -5
44 -2 62 22 25 32 27 44 10 79 -9 21 -40 37 -165 86 -85 33 -167 60 -184 60
-16 0 -38 -9 -49 -20z"/>
<path d="M2505 2460 c-13 -14 -19 -42 -23 -108 l-5 -90 -111 -4 c-82 -4 -126
-11 -168 -27 -80 -31 -159 -105 -200 -189 l-33 -67 -3 -298 c-4 -337 0 -364
65 -457 46 -66 103 -111 180 -142 56 -22 67 -23 353 -23 286 0 297 1 353 23
77 31 134 76 180 142 65 93 69 120 65 457 l-3 298 -33 67 c-41 84 -120 158
-200 189 -42 16 -86 23 -168 27 l-111 4 -5 90 c-6 105 -20 128 -78 128 -24 0
-43 -7 -55 -20z m382 -377 c51 -27 96 -82 112 -132 7 -25 11 -134 11 -303 l0
-264 -26 -53 c-32 -64 -86 -105 -155 -120 -65 -14 -473 -14 -538 0 -69 15
-123 56 -155 120 l-26 53 0 266 c0 173 4 279 11 301 15 42 53 94 85 115 61 41
90 44 369 41 257 -2 272 -3 312 -24z"/>
<path d="M2361 1862 c-33 -26 -31 -79 3 -109 26 -22 33 -23 196 -23 161 0 170
1 194 23 36 32 39 74 6 107 -19 19 -33 20 -199 20 -156 0 -182 -2 -200 -18z"/>
<path d="M2367 1568 c-42 -33 -37 -106 9 -127 15 -7 86 -11 184 -11 173 0 203
7 218 50 11 32 -7 84 -33 94 -32 12 -360 7 -378 -6z"/>
<path d="M3562 1857 c-29 -31 -28 -72 3 -102 l24 -25 549 0 c541 0 550 0 576
21 33 26 36 79 6 109 -20 20 -33 20 -578 20 l-559 0 -21 -23z"/>
<path d="M3584 1496 c-48 -21 -60 -80 -24 -116 20 -20 33 -20 580 -20 547 0
560 0 580 20 25 25 26 71 1 101 l-19 24 -544 2 c-441 2 -549 0 -574 -11z"/>
<path d="M3565 1105 c-14 -13 -25 -36 -25 -50 0 -14 11 -37 25 -50 l24 -25
554 0 554 0 21 23 c31 33 29 80 -4 106 -26 21 -35 21 -576 21 l-549 0 -24 -25z"/>
</g>
</svg>
