<?xml version="1.0" standalone="no"?>
<!DOCTYPE svg PUBLIC "-//W3C//DTD SVG 20010904//EN"
 "http://www.w3.org/TR/2001/REC-SVG-20010904/DTD/svg10.dtd">
<svg version="1.0" xmlns="http://www.w3.org/2000/svg"
 width="512.000000pt" height="512.000000pt" viewBox="0 0 512.000000 512.000000"
 preserveAspectRatio="xMidYMid meet">

<g transform="translate(0.000000,512.000000) scale(0.100000,-0.100000)"
fill="#000000" stroke="none">
<path d="M944 4832 c-100 -35 -184 -117 -226 -220 l-23 -57 -3 -2075 -2 -2075
22 -45 c34 -66 79 -93 148 -87 49 3 142 49 878 430 l823 426 822 -426 c734
-380 828 -426 877 -430 69 -6 114 21 148 87 l22 44 0 2042 c0 1329 -4 2060
-10 2094 -23 123 -99 223 -208 277 l-57 28 -1580 2 c-1487 2 -1583 1 -1631
-15z m3151 -325 c13 -21 15 -234 13 -1920 l-3 -1896 -590 305 c-959 496 -920
477 -968 471 -29 -3 -273 -125 -787 -391 l-745 -386 -3 1897 c-2 1686 0 1899
13 1920 l15 23 1520 0 1520 0 15 -23z"/>
<path d="M2480 3771 c-43 -23 -69 -57 -80 -107 -5 -21 -10 -146 -10 -276 l0
-238 -258 0 c-231 0 -261 -2 -292 -19 -91 -48 -112 -169 -42 -245 49 -53 69
-56 342 -56 l250 0 0 -237 c0 -140 5 -255 11 -278 13 -49 61 -101 106 -116 45
-15 107 -3 144 28 57 49 59 58 59 342 l0 260 269 3 c255 3 271 4 298 24 96 71
99 207 5 270 -24 17 -56 20 -297 24 l-270 5 -5 270 c-5 259 -6 271 -27 301
-44 61 -135 82 -203 45z"/>
</g>
</svg>
