<?xml version="1.0" standalone="no"?>
<!DOCTYPE svg PUBLIC "-//W3C//DTD SVG 20010904//EN"
 "http://www.w3.org/TR/2001/REC-SVG-20010904/DTD/svg10.dtd">
<svg version="1.0" xmlns="http://www.w3.org/2000/svg"
 width="512.000000pt" height="512.000000pt" viewBox="0 0 512.000000 512.000000"
 preserveAspectRatio="xMidYMid meet">

<g transform="translate(0.000000,512.000000) scale(0.100000,-0.100000)"
fill="#000000" stroke="none">
<path d="M980 4420 c-223 -34 -403 -187 -478 -405 l-27 -80 0 -1665 c0 -1662
0 -1665 21 -1700 44 -76 148 -105 219 -61 17 10 210 151 430 315 l399 296
1296 0 c1436 0 1345 -4 1489 67 138 67 254 212 298 374 17 59 18 147 18 1219
l0 1155 -27 80 c-66 193 -210 331 -408 393 -51 15 -184 17 -1615 18 -858 1
-1585 -2 -1615 -6z m3192 -343 c64 -31 101 -70 132 -137 21 -45 21 -50 21
-1170 l0 -1125 -21 -46 c-26 -55 -77 -108 -130 -135 -38 -18 -79 -19 -1384
-24 -1232 -5 -1348 -6 -1375 -22 -16 -9 -160 -113 -320 -232 -159 -119 -293
-216 -297 -216 -12 0 -10 2834 2 2905 18 109 92 192 197 221 39 10 347 12
1583 11 l1535 -2 57 -28z"/>
</g>
</svg>
