<?xml version="1.0" encoding="UTF-8"?>
<svg id="_Слой_1" data-name="Слой 1" xmlns="http://www.w3.org/2000/svg" viewBox="0 0 512 511.93">
  <defs>
    <style>
      .cls-1 {
        fill: #1074e8;
        stroke-width: 0px;
      }
    </style>
  </defs>
  <path class="cls-1" d="M45.2,1.93c-10.9,2.9-18.7,7.4-27.2,16C9.3,26.53,4.9,34.23,2,45.53.1,52.93,0,56.93,0,139.93s.1,87,2,94.4c2.9,11.3,7.3,19,16,27.6,8.6,8.7,16.3,13.1,27.6,16,7.3,1.9,11.3,2,74.4,2s67.1-.1,74.4-2c11.3-2.9,19-7.3,27.6-16,8.7-8.6,13.1-16.3,16-27.6,1.9-7.4,2-11.4,2-94.4s-.1-87-2-94.4c-2.9-11.3-7.3-19-16-27.6-8.6-8.7-16.3-13.1-27.6-16C187.1.03,183.2-.07,119.6.03,56.8.03,52,.13,45.2,1.93ZM190.7,43.13c2.2,1.5,5.1,4.4,6.4,6.5l2.4,3.8v173l-2.4,3.8c-1.3,2.1-4.2,5-6.4,6.5l-4.1,2.7H53.4l-4.1-2.7c-2.2-1.5-5.1-4.4-6.4-6.5l-2.4-3.8-.3-84.3c-.2-57.8.1-85.6.8-88.3,1.3-4.8,7.6-11.4,12.2-12.8,2-.6,29.1-.9,68.4-.8l65,.2,4.1,2.7Z"/>
  <path class="cls-1" d="M317.2,1.93c-10.9,2.9-18.7,7.4-27.2,16-8.7,8.6-13.1,16.3-16,27.6-1.9,7.1-2,11.2-2,54.4s.1,47.3,2,54.4c2.9,11.3,7.3,19,16,27.6,8.6,8.7,16.3,13.1,27.6,16,7.3,1.9,11.3,2,74.4,2s67.1-.1,74.4-2c11.3-2.9,19-7.3,27.6-16,8.7-8.6,13.1-16.3,16-27.6,1.9-7.1,2-11.2,2-54.4s-.1-47.3-2-54.4c-2.9-11.3-7.3-19-16-27.6-8.6-8.7-16.3-13.1-27.6-16C459.1.03,455.2-.07,391.6.03c-62.8,0-67.6.1-74.4,1.9ZM462.7,43.13c2.2,1.5,5.1,4.4,6.4,6.5l2.4,3.8v93l-2.4,3.8c-1.3,2.1-4.2,5-6.4,6.5l-4.1,2.7h-133.2l-4.1-2.7c-2.2-1.5-5.1-4.4-6.4-6.5l-2.4-3.8-.3-44.2c-.2-29.8.1-45.6.8-48.4,1.3-4.8,7.6-11.4,12.2-12.8,2-.6,29.1-.9,68.4-.8l65,.2,4.1,2.7Z"/>
  <path class="cls-1" d="M317.2,233.93c-10.9,2.9-18.7,7.4-27.2,16-8.7,8.6-13.1,16.3-16,27.6-1.9,7.4-2,11.4-2,94.4s.1,87,2,94.4c2.9,11.3,7.3,19,16,27.6,8.6,8.7,16.3,13.1,27.6,16,7.3,1.9,11.3,2,74.4,2s67.1-.1,74.4-2c11.3-2.9,19-7.3,27.6-16,8.7-8.6,13.1-16.3,16-27.6,1.9-7.4,2-11.4,2-94.4s-.1-87-2-94.4c-2.9-11.3-7.3-19-16-27.6-8.6-8.7-16.3-13.1-27.6-16-7.3-1.9-11.2-2-74.8-1.9-62.8,0-67.6.1-74.4,1.9ZM462.7,275.13c2.2,1.5,5.1,4.4,6.4,6.5l2.4,3.8v173l-2.4,3.8c-1.3,2.1-4.2,5-6.4,6.5l-4.1,2.7h-133.2l-4.1-2.7c-2.2-1.5-5.1-4.4-6.4-6.5l-2.4-3.8-.3-84.3c-.2-57.8.1-85.6.8-88.3,1.3-4.8,7.6-11.4,12.2-12.8,2-.6,29.1-.9,68.4-.8l65,.2,4.1,2.7Z"/>
  <path class="cls-1" d="M45.2,313.93c-10.9,2.9-18.7,7.4-27.2,16-8.7,8.6-13.1,16.3-16,27.6-1.9,7.1-2,11.2-2,54.4s.1,47.3,2,54.4c2.9,11.3,7.3,19,16,27.6,8.6,8.7,16.3,13.1,27.6,16,7.3,1.9,11.3,2,74.4,2s67.1-.1,74.4-2c11.3-2.9,19-7.3,27.6-16,8.7-8.6,13.1-16.3,16-27.6,1.9-7.1,2-11.2,2-54.4s-.1-47.3-2-54.4c-2.9-11.3-7.3-19-16-27.6-8.6-8.7-16.3-13.1-27.6-16-7.3-1.9-11.2-2-74.8-1.9-62.8,0-67.6.1-74.4,1.9ZM190.7,355.13c2.2,1.5,5.1,4.4,6.4,6.5l2.4,3.8v93l-2.4,3.8c-1.3,2.1-4.2,5-6.4,6.5l-4.1,2.7H53.4l-4.1-2.7c-2.2-1.5-5.1-4.4-6.4-6.5l-2.4-3.8-.3-44.2c-.2-29.8.1-45.6.8-48.4,1.3-4.8,7.6-11.4,12.2-12.8,2-.6,29.1-.9,68.4-.8l65,.2,4.1,2.7Z"/>
</svg>