<?xml version="1.0" standalone="no"?>
<!DOCTYPE svg PUBLIC "-//W3C//DTD SVG 20010904//EN"
 "http://www.w3.org/TR/2001/REC-SVG-20010904/DTD/svg10.dtd">
<svg version="1.0" xmlns="http://www.w3.org/2000/svg"
 width="512.000000pt" height="512.000000pt" viewBox="0 0 512.000000 512.000000"
 preserveAspectRatio="xMidYMid meet">

<g transform="translate(0.000000,512.000000) scale(0.100000,-0.100000)"
fill="#000000" stroke="none">
<path d="M452 5100 c-109 -29 -187 -74 -272 -160 -87 -86 -131 -163 -160 -276
-19 -74 -20 -114 -20 -944 0 -830 1 -870 20 -944 29 -113 73 -190 160 -276 86
-87 163 -131 276 -160 73 -19 113 -20 744 -20 631 0 671 1 744 20 113 29 190
73 276 160 87 86 131 163 160 276 19 74 20 114 20 944 0 830 -1 870 -20 944
-29 113 -73 190 -160 276 -86 87 -163 131 -276 160 -73 19 -112 20 -748 19
-628 0 -676 -1 -744 -19z m1455 -412 c22 -15 51 -44 64 -65 l24 -38 0 -865 0
-865 -24 -38 c-13 -21 -42 -50 -64 -65 l-41 -27 -666 0 -666 0 -41 27 c-22 15
-51 44 -64 65 l-24 38 -3 843 c-2 578 1 856 8 883 13 48 76 114 122 128 20 6
291 9 684 8 l650 -2 41 -27z"/>
<path d="M3172 5100 c-109 -29 -187 -74 -272 -160 -87 -86 -131 -163 -160
-276 -19 -71 -20 -112 -20 -544 0 -432 1 -473 20 -544 29 -113 73 -190 160
-276 86 -87 163 -131 276 -160 73 -19 113 -20 744 -20 631 0 671 1 744 20 113
29 190 73 276 160 87 86 131 163 160 276 19 71 20 112 20 544 0 432 -1 473
-20 544 -29 113 -73 190 -160 276 -86 87 -163 131 -276 160 -73 19 -112 20
-748 19 -628 0 -676 -1 -744 -19z m1455 -412 c22 -15 51 -44 64 -65 l24 -38 0
-465 0 -465 -24 -38 c-13 -21 -42 -50 -64 -65 l-41 -27 -666 0 -666 0 -41 27
c-22 15 -51 44 -64 65 l-24 38 -3 442 c-2 298 1 456 8 484 13 48 76 114 122
128 20 6 291 9 684 8 l650 -2 41 -27z"/>
<path d="M3172 2780 c-109 -29 -187 -74 -272 -160 -87 -86 -131 -163 -160
-276 -19 -74 -20 -114 -20 -944 0 -830 1 -870 20 -944 29 -113 73 -190 160
-276 86 -87 163 -131 276 -160 73 -19 113 -20 744 -20 631 0 671 1 744 20 113
29 190 73 276 160 87 86 131 163 160 276 19 74 20 114 20 944 0 830 -1 870
-20 944 -29 113 -73 190 -160 276 -86 87 -163 131 -276 160 -73 19 -112 20
-748 19 -628 0 -676 -1 -744 -19z m1455 -412 c22 -15 51 -44 64 -65 l24 -38 0
-865 0 -865 -24 -38 c-13 -21 -42 -50 -64 -65 l-41 -27 -666 0 -666 0 -41 27
c-22 15 -51 44 -64 65 l-24 38 -3 843 c-2 578 1 856 8 883 13 48 76 114 122
128 20 6 291 9 684 8 l650 -2 41 -27z"/>
<path d="M452 1980 c-109 -29 -187 -74 -272 -160 -87 -86 -131 -163 -160 -276
-19 -71 -20 -112 -20 -544 0 -432 1 -473 20 -544 29 -113 73 -190 160 -276 86
-87 163 -131 276 -160 73 -19 113 -20 744 -20 631 0 671 1 744 20 113 29 190
73 276 160 87 86 131 163 160 276 19 71 20 112 20 544 0 432 -1 473 -20 544
-29 113 -73 190 -160 276 -86 87 -163 131 -276 160 -73 19 -112 20 -748 19
-628 0 -676 -1 -744 -19z m1455 -412 c22 -15 51 -44 64 -65 l24 -38 0 -465 0
-465 -24 -38 c-13 -21 -42 -50 -64 -65 l-41 -27 -666 0 -666 0 -41 27 c-22 15
-51 44 -64 65 l-24 38 -3 442 c-2 298 1 456 8 484 13 48 76 114 122 128 20 6
291 9 684 8 l650 -2 41 -27z"/>
</g>
</svg>
