<?xml version="1.0" standalone="no"?>
<!DOCTYPE svg PUBLIC "-//W3C//DTD SVG 20010904//EN"
 "http://www.w3.org/TR/2001/REC-SVG-20010904/DTD/svg10.dtd">
<svg version="1.0" xmlns="http://www.w3.org/2000/svg"
 width="512.000000pt" height="512.000000pt" viewBox="0 0 512.000000 512.000000"
 preserveAspectRatio="xMidYMid meet">

<g transform="translate(0.000000,512.000000) scale(0.100000,-0.100000)"
fill="#000000" stroke="none">
<path d="M3360 3834 c-8 -4 -29 -13 -47 -21 -19 -9 -401 -414 -989 -1049 -527
-569 -961 -1034 -964 -1034 -3 0 -185 193 -403 429 -424 458 -439 471 -528
471 -69 0 -147 -44 -183 -103 -35 -57 -41 -140 -13 -197 22 -46 845 -935 904
-977 74 -52 127 -68 228 -68 98 0 161 22 237 81 61 49 1985 2133 2004 2172 45
93 7 216 -83 269 -45 26 -129 40 -163 27z"/>
<path d="M4390 3818 c-35 -18 -265 -261 -1023 -1078 -538 -580 -987 -1073
-999 -1094 -30 -58 -23 -159 16 -214 58 -84 177 -115 266 -69 35 17 265 259
1022 1077 571 616 986 1072 998 1096 87 176 -106 369 -280 282z"/>
</g>
</svg>
