<?xml version="1.0" standalone="no"?>
<!DOCTYPE svg PUBLIC "-//W3C//DTD SVG 20010904//EN"
 "http://www.w3.org/TR/2001/REC-SVG-20010904/DTD/svg10.dtd">
<svg version="1.0" xmlns="http://www.w3.org/2000/svg"
 width="512.000000pt" height="512.000000pt" viewBox="0 0 512.000000 512.000000"
 preserveAspectRatio="xMidYMid meet">

<g transform="translate(0.000000,512.000000) scale(0.100000,-0.100000)"
fill="#000000" stroke="none">
<path d="M1600 5109 c-451 -51 -883 -282 -1173 -628 -576 -686 -567 -1674 22
-2348 248 -283 602 -492 971 -571 179 -39 285 -43 981 -40 l665 3 41 27 c62
41 88 90 88 168 0 78 -26 127 -88 168 l-41 27 -725 6 c-704 5 -729 6 -826 28
-290 65 -526 198 -730 413 -184 192 -299 412 -357 681 -31 146 -31 408 0 554
41 190 108 348 219 516 62 94 267 299 363 362 163 108 345 183 535 221 137 28
397 25 535 -5 183 -39 352 -111 514 -219 109 -72 300 -268 378 -387 74 -112
88 -128 141 -150 142 -59 306 80 267 227 -15 57 -87 171 -182 289 -382 475
-993 726 -1598 658z"/>
<path d="M1735 4196 c-27 -12 -218 -207 -413 -421 -128 -140 -178 -274 -170
-455 6 -118 31 -199 91 -292 44 -69 447 -500 482 -516 44 -20 109 -25 150 -12
45 15 100 62 122 104 21 41 21 132 0 173 -9 17 -106 127 -214 243 -109 116
-206 226 -215 243 -21 39 -23 126 -4 170 7 18 104 129 215 247 110 118 208
231 218 250 62 127 -38 281 -181 280 -28 -1 -64 -7 -81 -14z"/>
<path d="M2052 3589 c-47 -14 -109 -79 -123 -131 -23 -89 12 -182 88 -229 l38
-24 725 -6 c697 -5 729 -6 822 -27 287 -65 496 -180 703 -387 129 -129 192
-215 268 -365 100 -200 141 -379 141 -620 0 -299 -73 -540 -239 -790 -64 -97
-268 -301 -365 -365 -481 -319 -1078 -325 -1556 -13 -143 93 -314 262 -406
403 -74 112 -88 128 -141 150 -70 29 -152 12 -210 -43 -44 -41 -60 -81 -60
-144 0 -51 5 -66 49 -139 27 -44 86 -127 131 -183 469 -587 1251 -819 1968
-584 118 38 328 142 435 213 614 412 913 1153 758 1875 -45 209 -144 442 -267
625 -291 436 -774 726 -1303 784 -123 14 -1409 13 -1456 0z"/>
<path d="M3215 2604 c-44 -22 -85 -64 -101 -101 -19 -44 -17 -131 4 -170 9
-17 104 -124 210 -237 105 -113 202 -222 214 -243 27 -45 30 -132 6 -178 -9
-16 -105 -124 -213 -240 -108 -115 -205 -227 -216 -247 -11 -23 -19 -57 -19
-88 0 -145 145 -241 275 -181 37 17 180 160 407 409 129 141 182 268 181 437
0 122 -31 223 -97 324 -60 90 -426 480 -478 509 -49 26 -128 29 -173 6z"/>
</g>
</svg>
