<?xml version="1.0" standalone="no"?>
<!DOCTYPE svg PUBLIC "-//W3C//DTD SVG 20010904//EN"
 "http://www.w3.org/TR/2001/REC-SVG-20010904/DTD/svg10.dtd">
<svg version="1.0" xmlns="http://www.w3.org/2000/svg"
 width="512.000000pt" height="512.000000pt" viewBox="0 0 512.000000 512.000000"
 preserveAspectRatio="xMidYMid meet">

<g transform="translate(0.000000,512.000000) scale(0.100000,-0.100000)"
fill="#000000" stroke="none">
<path d="M2100 5114 c-606 -75 -1081 -523 -1185 -1118 -20 -117 -20 -336 1
-457 83 -484 438 -897 903 -1048 160 -53 241 -65 426 -66 184 0 300 19 449 72
457 163 800 570 881 1047 31 180 16 435 -36 609 -103 346 -350 647 -668 811
-201 104 -362 145 -586 150 -82 3 -166 2 -185 0z m358 -418 c367 -90 639 -371
717 -739 31 -141 16 -356 -33 -497 -106 -305 -365 -538 -684 -615 -35 -9 -110
-18 -168 -21 -414 -24 -805 241 -942 636 -65 189 -65 431 0 620 111 320 393
561 731 625 93 18 288 13 379 -9z"/>
<path d="M1920 2010 c-217 -25 -441 -93 -640 -196 -420 -217 -740 -590 -889
-1039 -56 -168 -81 -298 -88 -456 -7 -164 -2 -199 40 -246 83 -94 223 -95 301
-2 41 48 46 69 56 219 45 646 492 1160 1135 1302 74 17 140 21 375 25 323 6
427 -4 616 -58 123 -35 161 -35 228 5 60 35 101 115 93 182 -7 65 -52 133
-107 160 -52 26 -196 66 -320 90 -98 18 -671 29 -800 14z"/>
<path d="M3745 1981 c-46 -21 -88 -63 -107 -106 -9 -22 -13 -120 -16 -352 l-3
-323 -317 0 c-287 0 -321 -2 -357 -19 -77 -36 -115 -95 -115 -181 0 -86 38
-145 115 -181 36 -17 70 -19 357 -19 l317 0 3 -322 c4 -345 6 -358 56 -412
113 -121 311 -62 342 103 5 30 10 184 10 342 l0 289 318 0 c310 0 319 1 362
23 24 12 58 39 74 60 29 36 31 45 31 117 0 72 -2 81 -31 117 -16 21 -50 48
-74 61 -43 21 -52 22 -362 22 l-318 0 0 289 c0 158 -5 312 -10 342 -25 130
-160 203 -275 150z"/>
</g>
</svg>
