<?xml version="1.0" standalone="no"?>
<!DOCTYPE svg PUBLIC "-//W3C//DTD SVG 20010904//EN"
 "http://www.w3.org/TR/2001/REC-SVG-20010904/DTD/svg10.dtd">
<svg version="1.0" xmlns="http://www.w3.org/2000/svg"
 width="512.000000pt" height="512.000000pt" viewBox="0 0 512.000000 512.000000"
 preserveAspectRatio="xMidYMid meet">

<g transform="translate(0.000000,512.000000) scale(0.100000,-0.100000)"
fill="#000000" stroke="none">
<path d="M2285 4675 c-536 -71 -1019 -339 -1377 -765 -147 -175 -295 -447
-372 -681 -75 -229 -106 -422 -106 -669 0 -247 31 -440 106 -669 151 -461 457
-854 879 -1131 178 -116 454 -231 675 -280 211 -47 495 -63 705 -40 382 43
751 191 1065 428 181 137 403 387 530 596 274 455 367 1019 254 1546 -66 308
-198 591 -397 855 -73 96 -265 290 -363 367 -311 245 -700 405 -1086 447 -128
14 -388 12 -513 -4z m-175 -342 c-124 -145 -274 -375 -361 -551 l-72 -144 -76
6 c-105 9 -565 67 -570 72 -5 5 78 104 153 182 183 191 440 359 700 459 84 32
307 94 314 88 2 -2 -38 -52 -88 -112z m578 66 c106 -51 374 -397 512 -661 52
-99 59 -118 43 -118 -10 0 -85 -5 -168 -10 -274 -19 -1139 -9 -1161 12 -9 10
97 206 180 333 124 187 312 407 381 443 70 36 138 37 213 1z m471 -15 c267
-87 532 -249 744 -453 68 -65 192 -210 185 -216 -3 -4 -340 -46 -553 -70 l-51
-6 -42 94 c-83 183 -232 416 -372 582 -104 124 -102 119 -55 111 21 -4 86 -23
144 -42z m-1899 -915 c184 -23 336 -42 337 -43 2 -2 -8 -40 -22 -86 -53 -176
-105 -480 -105 -611 l0 -59 -415 0 -415 0 5 38 c2 20 9 75 15 122 25 191 90
399 181 583 34 67 55 97 67 97 9 0 168 -18 352 -41z m3019 -56 c91 -184 156
-392 181 -583 6 -47 13 -102 15 -122 l5 -38 -388 0 -388 0 -13 132 c-15 169
-51 362 -94 511 -33 116 -33 117 -13 122 12 2 104 14 206 26 102 12 228 27
280 34 171 22 153 29 209 -82z m-2037 -24 c311 -12 711 -5 1024 18 l81 6 31
-109 c56 -191 84 -343 106 -581 l5 -53 -906 0 -906 0 8 93 c14 183 54 387 111
569 l26 80 46 -5 c26 -3 194 -12 374 -18z m-772 -998 c0 -131 52 -435 105
-611 14 -46 24 -84 22 -86 -3 -3 -669 -84 -689 -84 -12 0 -33 30 -67 98 -91
183 -156 391 -181 582 -6 47 -13 102 -15 123 l-5 37 415 0 415 0 0 -59z m2014
7 c-22 -239 -50 -391 -106 -582 l-31 -108 -76 5 c-313 23 -718 30 -1028 18
-181 -6 -349 -15 -375 -18 l-46 -5 -27 83 c-54 172 -97 390 -111 572 l-7 87
906 0 906 0 -5 -52z m991 15 c-2 -21 -9 -76 -15 -123 -15 -117 -55 -276 -97
-390 -51 -136 -130 -290 -149 -290 -9 0 -127 14 -262 30 -136 17 -272 33 -302
36 -95 10 -91 0 -53 131 43 149 79 342 94 511 l13 132 388 0 388 0 -5 -37z
m-1535 -898 c102 -3 215 -8 253 -12 l67 -6 -61 -116 c-109 -208 -262 -421
-418 -581 -65 -67 -84 -80 -133 -95 -104 -30 -168 -4 -280 113 -101 105 -186
213 -274 347 -64 97 -184 311 -184 328 0 3 15 9 33 12 46 9 568 22 702 18 61
-1 193 -5 295 -8z m-1215 -130 c90 -194 238 -424 384 -598 50 -59 91 -109 91
-111 0 -2 -35 5 -77 15 -391 91 -775 326 -1030 632 -36 43 -64 79 -62 81 2 2
117 18 254 35 138 17 264 32 280 34 17 2 49 5 73 6 l43 1 44 -95z m2070 60
c158 -19 290 -37 293 -40 2 -2 -25 -39 -61 -82 -240 -287 -576 -505 -937 -608
-49 -15 -95 -25 -101 -23 -7 2 12 31 41 63 147 168 316 426 408 624 25 56 51
101 57 101 6 0 141 -16 300 -35z"/>
</g>
</svg>
