<?xml version="1.0" standalone="no"?>
<!DOCTYPE svg PUBLIC "-//W3C//DTD SVG 20010904//EN"
 "http://www.w3.org/TR/2001/REC-SVG-20010904/DTD/svg10.dtd">
<svg version="1.0" xmlns="http://www.w3.org/2000/svg"
 width="512.000000pt" height="512.000000pt" viewBox="0 0 512.000000 512.000000"
 preserveAspectRatio="xMidYMid meet">

<g transform="translate(0.000000,512.000000) scale(0.100000,-0.100000)"
fill="#000000" stroke="none">
<path d="M518 5000 c-198 -24 -375 -142 -456 -300 -66 -131 -79 -310 -32 -451
42 -127 151 -254 273 -315 119 -61 326 -82 480 -49 211 44 380 202 432 402 19
73 19 210 0 292 -46 193 -213 357 -410 405 -79 19 -204 26 -287 16z"/>
<path d="M3624 3475 c-161 -28 -291 -79 -409 -158 -79 -54 -252 -227 -301
-301 l-39 -59 -5 229 -5 229 -545 3 -545 2 -2 -1655 -3 -1655 548 2 547 3 5
1015 c6 1105 2 1038 66 1160 60 116 164 223 267 276 146 76 383 77 527 4 93
-48 180 -154 227 -278 58 -155 56 -123 62 -1192 l6 -985 548 -3 547 -2 0 1012
c0 1074 -4 1168 -49 1375 -114 521 -438 862 -921 968 -105 23 -417 29 -526 10z"/>
<path d="M65 3408 c-3 -7 -4 -751 -3 -1653 l3 -1640 548 -3 547 -2 0 1655 0
1655 -545 0 c-427 0 -547 -3 -550 -12z"/>
</g>
</svg>
