<?xml version="1.0" standalone="no"?>
<!DOCTYPE svg PUBLIC "-//W3C//DTD SVG 20010904//EN"
 "http://www.w3.org/TR/2001/REC-SVG-20010904/DTD/svg10.dtd">
<svg version="1.0" xmlns="http://www.w3.org/2000/svg"
 width="512.000000pt" height="512.000000pt" viewBox="0 0 512.000000 512.000000"
 preserveAspectRatio="xMidYMid meet">

<g transform="translate(0.000000,512.000000) scale(0.100000,-0.100000)"
fill="#000000" stroke="none">
<path d="M1205 3624 c-421 -45 -782 -313 -921 -682 -50 -135 -67 -228 -67
-382 0 -154 17 -247 67 -382 125 -334 431 -585 806 -663 110 -23 313 -24 431
-1 168 32 320 99 454 198 96 72 264 244 286 293 62 136 -41 295 -192 295 -72
0 -106 -20 -224 -131 -58 -54 -125 -112 -150 -129 -171 -118 -398 -150 -601
-86 -280 89 -454 321 -454 606 0 178 59 321 179 440 123 121 271 186 451 197
186 11 369 -41 534 -150 145 -97 414 -378 638 -667 121 -157 316 -377 425
-479 302 -284 581 -404 943 -404 151 0 255 17 383 64 361 131 614 417 693 784
23 108 23 322 0 430 -91 423 -416 738 -856 831 -112 23 -306 23 -415 0 -151
-33 -326 -114 -476 -222 -91 -66 -229 -191 -229 -207 0 -7 65 -77 145 -156
l145 -144 63 60 c123 118 246 194 377 235 108 33 273 31 382 -4 287 -94 458
-321 458 -608 0 -176 -59 -320 -179 -440 -162 -161 -394 -229 -639 -186 -208
36 -362 125 -563 325 -130 131 -305 330 -424 486 -423 553 -716 780 -1105 855
-96 19 -292 31 -365 24z"/>
</g>
</svg>
