<?xml version="1.0" standalone="no"?>
<!DOCTYPE svg PUBLIC "-//W3C//DTD SVG 20010904//EN"
 "http://www.w3.org/TR/2001/REC-SVG-20010904/DTD/svg10.dtd">
<svg version="1.0" xmlns="http://www.w3.org/2000/svg"
 width="512.000000pt" height="512.000000pt" viewBox="0 0 512.000000 512.000000"
 preserveAspectRatio="xMidYMid meet">

<g transform="translate(0.000000,512.000000) scale(0.100000,-0.100000)"
fill="#000000" stroke="none">
<path d="M2385 3915 c-169 -37 -294 -105 -420 -230 -184 -181 -265 -390 -252
-647 7 -136 32 -230 93 -348 117 -227 332 -390 580 -442 116 -24 276 -21 384
7 230 60 435 224 544 434 62 121 87 212 93 351 12 256 -68 462 -251 646 -120
119 -259 195 -422 229 -89 18 -267 18 -349 0z m295 -336 c177 -41 327 -191
375 -375 70 -269 -103 -554 -376 -619 -425 -100 -769 340 -572 734 58 116 203
230 329 260 54 12 190 13 244 0z"/>
<path d="M725 3413 c-225 -50 -398 -187 -491 -388 -178 -386 39 -840 452 -945
155 -40 331 -19 484 57 111 55 232 179 288 293 55 112 75 193 75 310 0 116
-20 197 -75 310 -33 69 -58 102 -127 170 -142 142 -287 201 -485 199 -56 -1
-110 -3 -121 -6z m284 -373 c69 -37 119 -89 153 -159 33 -66 33 -216 0 -282
-36 -74 -87 -125 -160 -161 -60 -30 -75 -33 -152 -32 -99 1 -154 21 -221 81
-144 130 -156 338 -27 479 79 86 151 116 268 111 63 -3 86 -9 139 -37z"/>
<path d="M4092 3400 c-120 -32 -206 -83 -303 -180 -69 -68 -94 -101 -127 -170
-56 -114 -75 -194 -75 -310 0 -187 65 -343 197 -475 133 -134 263 -193 447
-202 285 -15 535 135 655 392 104 224 78 482 -70 689 -79 111 -181 187 -320
239 -71 26 -96 31 -206 34 -101 2 -139 -1 -198 -17z m310 -347 c148 -66 233
-239 194 -391 -19 -74 -49 -124 -106 -176 -67 -60 -121 -80 -220 -81 -77 0
-92 3 -152 33 -118 58 -179 152 -186 287 -3 64 0 91 17 135 35 94 112 168 211
204 61 22 179 17 242 -11z"/>
<path d="M2129 1904 c-274 -49 -517 -223 -653 -467 -91 -162 -129 -377 -80
-444 36 -48 82 -73 136 -73 100 0 161 58 179 170 38 237 228 435 464 485 100
21 670 21 770 0 114 -24 209 -77 295 -164 107 -107 142 -181 180 -371 22 -113
133 -176 232 -132 95 42 118 128 79 296 -83 360 -379 637 -748 701 -116 20
-741 20 -854 -1z"/>
<path d="M568 1800 c-250 -44 -443 -206 -530 -443 -41 -114 -47 -192 -19 -251
49 -100 174 -126 258 -53 39 34 63 81 63 121 0 87 89 214 185 264 50 27 51 27
309 30 224 3 266 1 304 -14 156 -59 297 89 222 235 -46 92 -138 114 -485 117
-143 1 -281 -1 -307 -6z"/>
<path d="M4010 1804 c-171 -32 -219 -53 -251 -114 -41 -75 -18 -171 53 -223
37 -27 117 -34 168 -13 33 13 83 16 285 16 280 0 315 -7 399 -81 62 -54 93
-111 112 -200 19 -93 43 -132 98 -158 55 -27 102 -26 156 2 65 34 93 92 87
177 -3 36 -19 102 -35 146 -74 204 -227 351 -437 421 -78 26 -88 27 -345 29
-146 1 -276 0 -290 -2z"/>
</g>
</svg>
