<?xml version="1.0" standalone="no"?>
<!DOCTYPE svg PUBLIC "-//W3C//DTD SVG 20010904//EN"
 "http://www.w3.org/TR/2001/REC-SVG-20010904/DTD/svg10.dtd">
<svg version="1.0" xmlns="http://www.w3.org/2000/svg"
 width="512.000000pt" height="512.000000pt" viewBox="0 0 512.000000 512.000000"
 preserveAspectRatio="xMidYMid meet">

<g transform="translate(0.000000,512.000000) scale(0.100000,-0.100000)"
fill="#000000" stroke="none">
<path d="M4188 5110 c-25 -4 -72 -16 -104 -25 -55 -16 -3446 -1526 -3639
-1621 -209 -102 -354 -280 -417 -510 -16 -61 -21 -109 -22 -209 0 -138 11
-200 58 -317 76 -188 150 -259 525 -508 l294 -195 77 0 c69 0 80 3 114 29 21
15 46 42 57 59 40 67 33 167 -16 225 -14 16 -150 113 -304 215 -297 198 -328
225 -378 333 -25 52 -28 71 -28 159 0 91 3 106 32 167 38 80 96 145 160 180
26 14 413 189 858 388 1159 518 2203 985 2475 1108 129 58 257 111 285 119
194 52 413 -65 480 -257 37 -105 45 -47 -279 -1959 -278 -1637 -309 -1809
-336 -1866 -85 -179 -315 -270 -501 -199 -24 9 -298 186 -609 392 -311 207
-583 382 -605 390 -149 52 -302 -117 -240 -265 9 -21 23 -46 33 -57 19 -21
1090 -738 1174 -785 123 -69 299 -109 439 -98 330 26 602 235 711 547 23 65
626 3608 635 3725 11 154 -38 337 -128 476 -106 164 -283 292 -474 343 -70 19
-260 29 -327 16z"/>
<path d="M3593 3788 c-49 -27 -1929 -1884 -2014 -1989 -75 -93 -133 -197 -175
-313 -61 -173 -64 -209 -64 -801 l0 -532 23 -44 c13 -24 43 -57 66 -74 36 -25
52 -30 104 -30 82 0 132 26 172 90 l30 48 5 556 c6 622 3 589 83 746 46 90 82
127 1375 1409 693 686 690 682 679 772 -11 103 -82 172 -183 181 -49 4 -66 1
-101 -19z"/>
</g>
</svg>
