<?xml version="1.0" encoding="UTF-8"?>
<svg id="_Слой_1" data-name="Слой 1" xmlns="http://www.w3.org/2000/svg" viewBox="0 0 480.9 481.39">
  <defs>
    <style>
      .cls-1, .cls-2 {
        stroke-width: 0px;
      }

      .cls-2 {
        fill: #97443e;
      }
    </style>
  </defs>
  <g>
    <path class="cls-1" d="M340.91,49.97s0-.02,0-.03c-46.89,20.34-288.35,127.92-303.37,135.32-17.87,8.72-30.27,23.94-35.66,43.61-1.37,5.22-1.8,9.32-1.88,17.87,0,11.8.94,17.1,4.96,27.11,6.5,16.08,12.83,22.15,44.9,43.44l25.14,16.68h6.58c5.9,0,6.84-.26,9.75-2.48,1.8-1.28,3.93-3.59,4.87-5.05,3.42-5.73,2.82-14.28-1.37-19.24-1.2-1.37-12.83-9.66-26-18.39-25.4-16.93-28.05-19.24-32.32-28.48-2.14-4.45-2.39-6.07-2.39-13.6s.26-9.06,2.74-14.28c3.25-6.84,8.21-12.4,13.68-15.39,2.22-1.2,35.32-16.16,73.37-33.18,99.11-44.3,188.39-84.23,211.65-94.75,2.16-.97,4.3-1.92,6.38-2.83-.02-.09-2.54-9.26-2.81-18-.29-9.23,1.67-18.07,1.78-18.34Z"/>
    <path class="cls-1" d="M398.39,141.54c-3.66,23.18-10.2,61.61-21.26,126.93-23.77,139.99-26.42,154.7-28.73,159.57-7.27,15.31-26.94,23.09-42.84,17.02-2.05-.77-25.48-15.91-52.08-33.52-26.6-17.7-49.86-32.67-51.74-33.35-12.74-4.45-25.83,10.01-20.52,22.66.77,1.8,1.97,3.93,2.82,4.87,1.62,1.8,93.21,63.11,100.4,67.13,10.52,5.9,25.57,9.32,37.54,8.38,28.22-2.22,51.48-20.1,60.8-46.78,1.65-4.67,38.26-218.98,50.42-293.54-.28.15-8.68,2.34-17.48,2.49-8.31.14-17.05-1.75-17.32-1.86Z"/>
    <path class="cls-1" d="M306.74,157.55c-4.19,2.31-164.96,161.11-172.23,170.09-6.41,7.95-11.37,16.85-14.97,26.77-5.22,14.79-5.47,17.87-5.47,68.5v45.49l1.97,3.76c1.11,2.05,3.68,4.87,5.64,6.33,3.08,2.14,4.45,2.57,8.89,2.57,7.01,0,11.29-2.22,14.71-7.7l2.57-4.1.43-47.55c.51-53.19.26-50.37,7.1-63.79,3.93-7.7,7.01-10.86,117.58-120.49,59.26-58.66,59.01-58.32,58.07-66.02-.94-8.81-7.01-14.71-15.65-15.48-4.19-.34-5.64-.09-8.64,1.62Z"/>
  </g>
  <circle class="cls-2" cx="415.05" cy="65.85" r="65.85"/>
</svg>