<?xml version="1.0" encoding="UTF-8"?>
<svg id="_Слой_1" data-name="Слой 1" xmlns="http://www.w3.org/2000/svg" viewBox="0 0 511.42 480.9">
  <defs>
    <style>
      .cls-1 {
        stroke-width: 0px;
      }
    </style>
  </defs>
  <path class="cls-1" d="M303.8,11.43c-4.2-6.4-11.5-9.3-18.8-7.5q-3.1.8-90.2,70.5l-28.82,23.03c.43.44,24.21,23.46,24.64,24.08l13.67-10.91,67.7-54.2.3,92.9c.03,15.07.05,32.98.06,52.04.07.05,33.95,33.23,34.14,33.42V15.63l-2.7-4.2Z"/>
  <path class="cls-1" d="M305.16,302.15c-.99-.69-1.62-1.74-1.89-2.9-5.08-3.23-9.49-7.63-13.88-11.67-3.04-2.8-5.99-5.61-8.72-8.72-2.44-2.78-4.4-6.29-7.45-8.45-.32-.23-.6-.48-.85-.74,0,24.03-.03,46.9-.07,65.46l-.3,92.9-67.7-54.2-67.8-54.1v-155l18-14.36c-2.98-2.75-5.67-6.56-7.55-9.85-.21-.37-.37-.73-.49-1.09-.74-.04-1.49-.26-2.23-.74-5.25-3.4-9.16-8.51-12.73-13.66l-18.91,15.11-88.6.6-5.3,2.8c-7,3.7-12.8,9.7-16.1,16.6l-2.6,5.6v153l2.7,5.7c3.1,6.8,9.5,13.3,16.4,16.8l4.9,2.5,88.6.6,82.5,66c45.4,36.3,84,66.9,85.7,67.9,8.2,5,17.8,2.8,23-5.2l2.7-4.2v-165.09c-.58-.42-1.02-.97-1.34-1.59ZM101.5,310.23H33.5v-136h68v136Z"/>
  <path class="cls-1" d="M447,79.43c-3.7-4-8-7.9-9.5-8.7-3.8-2-9.9-2.6-13.5-1.4-8.8,2.8-13.9,13.6-10.5,22.4.6,1.5,4.6,6.6,8.9,11.4,36.5,40.3,54.5,86.4,54.5,139.1,0,44.62-12.94,84.5-39.05,120.14.73.57,24.2,23.91,24.66,24.32,26.55-34.7,43.89-78.39,47.89-122.45,6.3-67.6-16.7-134.7-63.4-184.8Z"/>
  <path class="cls-1" d="M409.55,140.78c-6.8-9.1-16.2-19.3-19.6-21.4-3.7-2.3-9.1-3.2-12.7-2.1-8.2,2.5-12.8,8.5-12.8,16.7,0,5.6,2.2,9.6,9.4,17.3,40.9,43.19,45.7,113.54,14.51,163.17.8.92,24.64,23.72,24.94,24.1,40.6-58.63,39.36-140.59-3.75-197.78Z"/>
  <rect class="cls-1" x="238.27" y="-87.62" width="25.4" height="641.03" transform="translate(-90.99 249.92) rotate(-45.71)"/>
</svg>