<?xml version="1.0" standalone="no"?>
<!DOCTYPE svg PUBLIC "-//W3C//DTD SVG 20010904//EN"
 "http://www.w3.org/TR/2001/REC-SVG-20010904/DTD/svg10.dtd">
<svg version="1.0" xmlns="http://www.w3.org/2000/svg"
 width="512.000000pt" height="512.000000pt" viewBox="0 0 512.000000 512.000000"
 preserveAspectRatio="xMidYMid meet">

<g transform="translate(0.000000,512.000000) scale(0.100000,-0.100000)"
fill="#000000" stroke="none">
<path d="M2798 5100 c-23 -12 -46 -36 -58 -60 -20 -39 -20 -57 -20 -1125 0
-1068 0 -1086 20 -1125 13 -26 34 -47 60 -60 39 -20 57 -20 1120 -20 1063 0
1081 0 1120 20 78 40 91 103 70 335 -46 500 -264 983 -611 1349 -405 428 -955
679 -1538 702 -114 4 -130 3 -163 -16z m462 -321 c522 -111 968 -421 1258
-874 147 -231 262 -561 288 -827 l7 -68 -897 0 -896 0 0 901 0 902 73 -7 c39
-4 115 -16 167 -27z"/>
<path d="M2090 4503 c-352 -26 -758 -165 -1060 -363 -666 -436 -1059 -1187
-1026 -1960 24 -576 249 -1092 656 -1501 198 -200 380 -331 625 -449 326 -158
611 -224 970 -224 275 -1 461 27 704 105 118 38 144 51 172 90 46 65 51 48
-344 1105 l-367 981 0 1052 c0 1034 0 1052 -20 1091 -38 74 -101 89 -310 73z
m32 -1295 l3 -993 343 -918 c189 -505 342 -920 340 -921 -4 -4 -132 -33 -198
-45 -397 -73 -848 -8 -1211 174 -206 104 -362 217 -524 379 -210 211 -354 435
-456 711 -35 95 -82 278 -100 390 -19 116 -16 444 5 570 69 407 238 748 515
1037 243 254 510 421 841 526 126 40 310 77 402 81 l38 1 2 -992z"/>
<path d="M2799 2390 c-48 -25 -84 -96 -76 -146 3 -20 174 -486 379 -1036 294
-789 379 -1007 401 -1029 15 -16 46 -33 69 -40 47 -12 95 2 253 75 371 173
717 482 949 846 172 272 295 631 331 968 28 257 16 321 -65 362 -39 20 -56 20
-1122 20 -1050 -1 -1084 -1 -1119 -20z m2007 -352 c-10 -102 -51 -284 -93
-408 -102 -307 -309 -620 -552 -837 -151 -134 -447 -322 -469 -298 -6 7 -553
1468 -600 1603 -3 9 173 12 858 12 l863 0 -7 -72z"/>
</g>
</svg>
