<?xml version="1.0" standalone="no"?>
<!DOCTYPE svg PUBLIC "-//W3C//DTD SVG 20010904//EN"
 "http://www.w3.org/TR/2001/REC-SVG-20010904/DTD/svg10.dtd">
<svg version="1.0" xmlns="http://www.w3.org/2000/svg"
 width="512.000000pt" height="512.000000pt" viewBox="0 0 512.000000 512.000000"
 preserveAspectRatio="xMidYMid meet">

<g transform="translate(0.000000,512.000000) scale(0.100000,-0.100000)"
fill="#000000" stroke="none">
<path d="M2340 4844 c-520 -61 -955 -256 -1336 -600 l-92 -84 -4 134 c-3 117
-6 138 -24 162 -39 53 -71 69 -134 69 -63 0 -95 -16 -134 -69 -20 -27 -21 -39
-21 -386 0 -348 1 -359 21 -387 11 -15 36 -38 54 -50 33 -23 37 -23 377 -23
298 0 350 2 379 16 50 24 77 68 82 133 5 70 -22 115 -88 149 -39 19 -60 22
-164 22 l-120 0 71 65 c171 156 293 240 488 335 152 74 245 108 394 145 178
44 237 50 471 50 234 0 293 -6 471 -50 144 -36 240 -71 384 -140 537 -257 921
-734 1064 -1320 30 -125 42 -209 50 -361 9 -163 23 -200 94 -235 74 -38 153
-14 206 62 23 33 23 38 18 189 -7 179 -24 293 -72 475 -102 392 -306 746 -595
1035 -341 341 -770 561 -1260 646 -91 15 -494 28 -580 18z"/>
<path d="M2455 4166 c-134 -34 -191 -90 -312 -301 -142 -249 -169 -336 -167
-550 2 -140 19 -227 69 -347 15 -35 32 -75 38 -90 18 -44 -9 -64 -98 -72 -106
-10 -216 -41 -320 -90 -191 -91 -307 -208 -440 -441 -49 -87 -98 -184 -108
-214 -42 -124 0 -279 100 -372 50 -47 1167 -697 1242 -724 102 -36 201 -27
304 28 77 41 111 83 217 267 139 243 166 332 163 545 -1 140 -19 229 -68 347
-15 35 -32 75 -38 90 -18 44 9 64 98 72 108 10 214 40 319 89 192 92 307 208
443 446 51 89 100 187 109 218 23 78 15 171 -21 251 -49 109 -85 134 -712 494
-313 180 -589 335 -613 343 -63 22 -146 27 -205 11z m306 -429 c733 -422 906
-522 922 -535 9 -8 17 -24 17 -35 0 -10 -39 -86 -86 -168 -97 -168 -156 -231
-272 -292 -81 -43 -199 -77 -265 -77 -110 0 -236 -68 -300 -162 -78 -115 -86
-235 -24 -376 52 -118 69 -193 69 -302 0 -132 -19 -196 -108 -352 -77 -134
-109 -178 -128 -178 -15 0 -18 2 -421 234 -198 115 -439 253 -535 309 -198
114 -210 122 -210 150 0 11 39 87 86 169 97 168 156 230 274 292 77 41 201 76
266 76 101 0 232 67 287 147 54 78 71 132 71 223 0 78 -3 93 -41 180 -23 52
-47 118 -54 145 -17 72 -15 229 4 300 27 105 191 375 228 375 3 0 102 -55 220
-123z"/>
<path d="M370 2709 c-32 -13 -68 -47 -86 -81 -28 -53 -10 -353 32 -543 134
-602 480 -1108 987 -1442 665 -439 1537 -496 2252 -148 215 104 367 208 556
377 l97 87 4 -134 c3 -116 6 -137 24 -161 39 -53 71 -69 134 -69 63 0 95 16
134 69 20 27 21 39 21 386 0 348 -1 359 -21 387 -11 15 -36 38 -54 51 -33 22
-37 22 -377 22 -298 0 -350 -2 -379 -16 -50 -24 -77 -68 -82 -133 -5 -70 22
-115 88 -148 38 -20 60 -23 165 -23 l120 -1 -55 -50 c-243 -221 -487 -366
-760 -454 -237 -76 -413 -100 -674 -92 -303 9 -522 62 -791 192 -412 199 -729
517 -925 927 -117 246 -174 474 -189 753 -7 122 -11 148 -30 179 -39 63 -124
91 -191 65z"/>
</g>
</svg>
