<?xml version="1.0" standalone="no"?>
<!DOCTYPE svg PUBLIC "-//W3C//DTD SVG 20010904//EN"
 "http://www.w3.org/TR/2001/REC-SVG-20010904/DTD/svg10.dtd">
<svg version="1.0" xmlns="http://www.w3.org/2000/svg"
 width="512.000000pt" height="512.000000pt" viewBox="0 0 512.000000 512.000000"
 preserveAspectRatio="xMidYMid meet">

<g transform="translate(0.000000,512.000000) scale(0.100000,-0.100000)"
fill="#000000" stroke="none">
<path d="M1181 4379 c-24 -5 -60 -20 -80 -33 -20 -14 -266 -256 -548 -538
-544 -545 -553 -555 -553 -648 0 -93 10 -104 548 -643 279 -280 526 -522 550
-538 107 -76 253 -44 320 70 34 57 37 155 8 211 -10 19 -163 180 -339 358
l-321 322 1514 0 c945 0 1549 -4 1605 -10 359 -40 646 -279 751 -625 25 -80
28 -106 28 -240 1 -161 -7 -211 -55 -328 -109 -270 -324 -455 -619 -534 -59
-15 -161 -18 -1086 -23 l-1021 -5 -48 -30 c-124 -77 -141 -256 -32 -352 69
-61 20 -58 1112 -58 1067 0 1054 -1 1236 50 662 186 1072 848 944 1523 -88
460 -424 848 -870 1003 -198 68 -58 63 -1842 66 -887 2 -1613 7 -1613 11 0 4
146 153 325 332 297 296 327 330 342 376 21 67 11 129 -30 191 -50 74 -136
109 -226 92z"/>
</g>
</svg>
