<?xml version="1.0" standalone="no"?>
<!DOCTYPE svg PUBLIC "-//W3C//DTD SVG 20010904//EN"
 "http://www.w3.org/TR/2001/REC-SVG-20010904/DTD/svg10.dtd">
<svg version="1.0" xmlns="http://www.w3.org/2000/svg"
 width="512.000000pt" height="512.000000pt" viewBox="0 0 512.000000 512.000000"
 preserveAspectRatio="xMidYMid meet">

<g transform="translate(0.000000,512.000000) scale(0.100000,-0.100000)"
fill="#000000" stroke="none">
<path d="M1179 5105 c-169 -27 -361 -91 -427 -142 -65 -49 -92 -164 -56 -236
9 -18 166 -183 350 -367 l334 -335 -143 -143 -142 -142 -330 331 c-182 182
-347 339 -367 350 -76 39 -190 14 -242 -54 -36 -48 -100 -221 -127 -347 -30
-138 -33 -398 -6 -533 112 -558 525 -980 1080 -1099 132 -28 407 -31 532 -5
75 16 80 16 96 -1 9 -9 421 -489 916 -1067 494 -577 921 -1068 949 -1091 118
-97 233 -157 375 -196 108 -29 325 -32 433 -5 347 87 606 346 693 693 27 108
24 325 -5 433 -39 142 -99 257 -196 375 -23 28 -513 455 -1091 949 -577 495
-1058 907 -1067 916 -17 16 -17 21 -1 96 23 114 23 390 0 508 -113 565 -539
993 -1099 1102 -116 23 -351 28 -459 10z m362 -400 c366 -64 659 -317 768
-663 65 -209 67 -388 5 -594 -28 -96 -30 -133 -7 -189 14 -36 165 -169 1132
-998 614 -527 1134 -978 1156 -1003 176 -200 163 -510 -30 -703 -196 -196
-515 -205 -714 -21 -19 17 -465 533 -991 1147 -829 967 -963 1118 -999 1132
-55 22 -95 21 -177 -4 -208 -64 -395 -64 -606 2 -403 127 -679 507 -678 938 0
47 4 91 8 98 5 8 100 -80 287 -268 154 -154 297 -289 317 -300 48 -25 120 -25
172 1 57 27 640 612 661 662 21 51 19 121 -4 166 -11 20 -146 163 -300 317
-188 187 -276 282 -268 287 20 13 179 9 268 -7z"/>
</g>
</svg>
