<?xml version="1.0" standalone="no"?>
<!DOCTYPE svg PUBLIC "-//W3C//DTD SVG 20010904//EN"
 "http://www.w3.org/TR/2001/REC-SVG-20010904/DTD/svg10.dtd">
<svg version="1.0" xmlns="http://www.w3.org/2000/svg"
 width="512.000000pt" height="512.000000pt" viewBox="0 0 512.000000 512.000000"
 preserveAspectRatio="xMidYMid meet">

<g transform="translate(0.000000,512.000000) scale(0.100000,-0.100000)"
fill="#000000" stroke="none">
<path d="M2388 5095 c-298 -57 -553 -254 -685 -531 -69 -146 -86 -223 -87
-399 -1 -127 3 -163 22 -235 48 -176 136 -326 265 -453 44 -43 78 -79 76 -80
-2 -1 -56 -28 -119 -59 -215 -108 -415 -278 -556 -473 -77 -107 -181 -310
-215 -417 -13 -43 -26 -78 -29 -78 -3 0 -31 38 -63 84 -69 100 -103 121 -180
113 -43 -4 -56 -10 -89 -45 -34 -37 -38 -46 -38 -95 0 -42 6 -63 26 -93 15
-21 98 -140 184 -264 166 -237 189 -260 261 -260 44 0 70 15 336 202 269 189
279 200 270 291 -4 43 -10 56 -45 89 -37 34 -47 38 -92 38 -59 0 -66 -3 -174
-79 -114 -81 -107 -79 -90 -19 25 87 128 288 192 373 318 426 882 607 1382
443 362 -119 666 -412 795 -768 135 -375 82 -788 -146 -1126 -69 -102 -223
-257 -323 -324 -100 -67 -259 -143 -356 -170 -180 -50 -177 -50 -1524 -50
-1239 0 -1260 0 -1301 -20 -47 -23 -85 -80 -85 -129 0 -51 35 -108 80 -131 39
-20 54 -20 2282 -20 l2243 0 -77 -77 c-42 -43 -83 -92 -92 -110 -61 -122 75
-258 197 -197 44 22 444 420 468 466 10 21 19 51 19 68 0 17 -9 47 -19 68 -24
46 -424 444 -468 466 -122 61 -258 -75 -197 -197 9 -18 50 -67 92 -109 l77
-78 -565 0 -565 1 30 22 c54 39 169 150 235 227 281 324 413 771 355 1203 -90
677 -618 1221 -1289 1327 -38 6 -136 15 -217 20 -122 7 -162 14 -232 38 -316
109 -499 425 -432 747 50 240 260 450 500 500 209 44 423 -17 579 -165 62 -59
153 -186 141 -198 -2 -2 -59 22 -127 53 -67 31 -137 59 -154 62 -45 7 -119
-28 -144 -69 -39 -64 -18 -163 42 -202 67 -42 568 -266 597 -266 40 0 104 32
122 62 32 50 261 553 266 583 7 46 -28 120 -69 145 -46 28 -115 27 -159 -2
-24 -16 -46 -47 -74 -105 -22 -46 -42 -83 -45 -83 -3 0 -15 17 -26 38 -45 78
-140 187 -218 249 -98 78 -250 154 -366 184 -111 27 -295 34 -402 14z"/>
</g>
</svg>
