<?xml version="1.0" standalone="no"?>
<!DOCTYPE svg PUBLIC "-//W3C//DTD SVG 20010904//EN"
 "http://www.w3.org/TR/2001/REC-SVG-20010904/DTD/svg10.dtd">
<svg version="1.0" xmlns="http://www.w3.org/2000/svg"
 width="512.000000pt" height="512.000000pt" viewBox="0 0 512.000000 512.000000"
 preserveAspectRatio="xMidYMid meet">

<g transform="translate(0.000000,512.000000) scale(0.100000,-0.100000)"
fill="#000000" stroke="none">
<path d="M1990 5104 c-162 -70 -160 -301 2 -369 26 -10 71 -15 148 -15 l110 0
0 -184 0 -185 -57 -6 c-552 -63 -1089 -358 -1435 -789 -246 -305 -396 -638
-465 -1031 -25 -146 -25 -538 0 -689 117 -693 548 -1284 1163 -1597 615 -312
1332 -318 1949 -14 232 114 386 223 569 403 344 338 558 761 631 1247 21 133
24 440 6 570 -53 393 -194 741 -425 1048 -31 41 -56 79 -56 83 0 5 56 65 124
133 l125 125 81 -78 c88 -84 127 -106 190 -106 147 0 243 151 181 285 -12 26
-122 142 -317 336 -286 283 -301 297 -350 308 -127 30 -243 -60 -244 -187 0
-75 20 -114 105 -201 l74 -77 -128 -128 -128 -128 -95 70 c-258 192 -552 324
-858 385 -69 14 -151 28 -182 32 l-58 6 0 185 0 184 108 0 c124 0 168 15 219
73 29 33 53 90 53 127 0 68 -57 151 -125 181 -37 17 -75 19 -460 18 -353 0
-426 -2 -455 -15z m638 -1155 c534 -58 1000 -338 1294 -778 405 -606 405
-1378 -1 -1982 -407 -606 -1135 -901 -1846 -748 -219 47 -480 161 -654 286
-476 343 -751 874 -751 1453 0 482 176 907 520 1250 162 162 276 246 465 340
311 155 641 216 973 179z"/>
<path d="M2386 3545 c-57 -20 -87 -45 -113 -95 l-23 -43 0 -639 c0 -608 1
-641 19 -676 24 -47 56 -77 103 -97 56 -23 930 -23 986 1 80 33 125 100 125
184 0 61 -17 101 -60 142 -59 56 -73 58 -438 58 l-335 0 0 491 c0 340 -4 504
-12 537 -15 62 -78 125 -140 140 -58 15 -63 15 -112 -3z"/>
</g>
</svg>
