<?xml version="1.0" encoding="UTF-8"?>
<svg id="_Слой_1" data-name="Слой 1" xmlns="http://www.w3.org/2000/svg" viewBox="0 0 510.83 511.15">
  <defs>
    <style>
      .cls-1 {
        fill: #1074e8;
        stroke-width: 0px;
      }
    </style>
  </defs>
  <path class="cls-1" d="M232.53.62c-49.4,4.8-95,23-135,53.8-19.5,15-44.8,43.2-59.4,66.2-6.3,9.9-18.6,35.1-23,47.1-4.9,13.4-10.2,34-12.8,49.9-3.1,19.5-3.1,56.5,0,76,4.5,27.6,11.6,49.8,23.7,74.5,13.2,26.9,26.9,46,48.9,68.1,22.1,22,41.2,35.7,68.1,48.9,24.7,12.1,46.9,19.2,74.5,23.7,19.5,3.1,56.5,3.1,76,0,27.6-4.5,49.8-11.6,74.5-23.7,26.9-13.2,46-26.9,68.1-48.9,22-22.1,35.7-41.2,48.9-68.1,8.8-17.9,13.2-29.6,18-47.6,6.3-24,7.8-37.1,7.8-64.9s-1.5-40.9-7.8-64.9c-4.8-18-9.2-29.7-18-47.6-13.2-26.9-26.9-46-48.9-68.1-22.1-22-41.2-35.7-68.1-48.9-24.6-12.1-47.4-19.3-74-23.5-14.7-2.3-47.5-3.4-61.5-2ZM275.13,43.72c50.3,4.9,94.7,25.9,130.5,61.8,36.1,36.2,56.9,80.2,61.8,130.5,5.1,52.2-9.7,104.1-42.2,147.6-9.2,12.3-29.6,32.8-41.7,41.8-43.8,32.5-95.4,47.2-147.6,42.1-50.3-4.9-94.7-25.9-130.5-61.8-36.1-36.2-56.9-80.2-61.8-130.5-5.1-52.2,9.7-104.1,42.2-147.6,9.2-12.3,29.6-32.8,41.7-41.8,43.8-32.4,95.5-47.2,147.6-42.1Z"/>
  <path class="cls-1" d="M240.53,97.12c-10.4,1.8-17.2,4.1-26,8.5-31,15.6-50.5,46.1-51.3,79.9-.1,6.6.3,8.6,2.4,12.7,5.4,10.5,17.4,14.3,28.3,9,7.9-3.9,10.5-8.3,12.2-21,2-15.3,5.5-23.4,14-32.1,19.5-20.1,51.4-20,70.9,0,17.9,18.5,18.4,47.9,1.1,67.2-8.7,9.7-19.5,14.9-33.9,16.4-13.1,1.3-19.7,5.6-22.9,14.6-1.5,4.2-1.9,54.9-.5,61.4,1,4.7,7.1,11.7,12.1,14,5.2,2.4,12,2.4,17.1,0,4.3-1.9,10-7.7,11.7-12,.6-1.4,1.4-10.5,1.7-20.1l.6-17.4,4-1.2c31.6-9.2,57-36.8,64.1-69.7,1.9-8.7,2.1-26.7.4-35.7-9.1-49.2-57.3-83-106-74.5Z"/>
  <path class="cls-1" d="M244.83,353.22c-2.3.9-6.2,3.3-8.8,5.6-16.4,14.4-12.8,40.2,7,49.8,7.1,3.5,17.9,3.5,25,0,19.8-9.6,23.4-35.4,7-49.8-2.5-2.2-6.7-4.8-9.2-5.6-5.7-2-15.4-1.9-21,0Z"/>
</svg>