<?xml version="1.0" encoding="UTF-8"?>
<svg id="_Слой_1" data-name="Слой 1" xmlns="http://www.w3.org/2000/svg" viewBox="0 0 389.36 511.22">
  <defs>
    <style>
      .cls-1 {
        fill: #1074e8;
        stroke-width: 0px;
      }
    </style>
  </defs>
  <path class="cls-1" d="M97.36.92c-9.5,3.4-16,12.1-17.1,22.7l-.7,6.1h-15.1c-22,0-31.9,2.9-44.2,12.8C9.46,51.32,2.56,64.12.76,79.12.16,84.22-.14,159.12.06,277.72l.3,190.5,2.3,5.9c6.4,17,18.7,29.1,35,34.8l6.7,2.3h301l6.5-2.3c17.3-6.3,29.7-19.1,35.3-36.7l2.2-7V74.22l-2.3-6.7c-5.7-16.4-18.1-28.9-34.8-34.9-5-1.9-8.7-2.3-24.1-2.7l-18.3-.4v-5.2c-.1-9-5.3-17.5-13.5-21.9l-4-2.2L196.36.02c-66.5-.1-96.9.2-99,.9ZM279.86,44.72v15H109.86v-30h170v15ZM80.16,65.72c1.1,9.8,6.3,17.6,14.6,21.7,3.4,1.7,9.5,1.8,98.4,2.1,63.5.1,96.2-.1,98.7-.8,9.9-2.7,18-13.3,18-23.8v-5.4l16.3.4c15.7.3,16.4.4,21,3.1,5.4,3.2,10.2,9.2,11.7,14.8.7,2.4.9,68.2.8,194.1-.3,180.8-.4,190.5-2.1,194.3-2.5,5.5-7.3,10.3-13.2,13.1l-5,2.4-144.5-.1c-118.1,0-145.2-.2-148.3-1.3-5.5-2-10.3-6.1-13.4-11.4l-2.8-4.7v-192c0-160.1.2-192.6,1.4-195.9,1.9-5.4,7.7-11.5,13.6-14.2,4.5-2.2,6.4-2.4,19.6-2.4h14.6l.6,6Z"/>
  <path class="cls-1" d="M139.36,141.52c-1.6,1.1-10.6,9.7-20,19.1-9.3,9.4-17.5,17.1-18,17.1-.6,0-3.1-2.1-5.5-4.6-7.3-7.6-12.3-8.9-19.7-5.3-7.2,3.5-10.1,11.7-6.9,19.2.7,1.8,6.7,8.4,13.2,14.9,9.7,9.5,12.6,11.7,15.7,12.3,7.9,1.5,9.4.3,36.9-27.2,22.2-22.3,25.7-26.3,26.3-29.6,1-5.1-1.7-12-5.7-14.9-4.4-3.1-12.3-3.5-16.3-1Z"/>
  <path class="cls-1" d="M192.56,171.92c-3.9,2.3-7.7,8.6-7.7,12.8s3.8,10.5,7.9,12.8l4,2.2,57.5-.2c56.3-.3,57.5-.3,60.2-2.4,5-3.7,6.8-7,6.8-12.4s-1.8-8.7-6.8-12.4c-2.7-2.1-3.9-2.1-60.4-2.3l-57.7-.3-3.8,2.2Z"/>
  <path class="cls-1" d="M142.96,247.72c-2.6.6-7.8,5.2-22.2,19.6l-18.8,18.7-6-5.6c-6.5-6-10.4-7.4-16.5-6.3-9.5,1.8-14.3,12.4-9.7,21.4,1,2,6.8,8.5,12.8,14.4,12.3,11.9,15.7,13.6,22.8,11.7,3.3-.9,8.4-5.4,28.7-25.7,13.6-13.5,25.5-26.2,26.4-28,5.1-10.7-5.5-22.9-17.5-20.2Z"/>
  <path class="cls-1" d="M192.56,271.92c-3.9,2.3-7.7,8.6-7.7,12.8s3.8,10.5,7.9,12.8l4,2.2,57.5-.2c56.3-.3,57.5-.3,60.2-2.4,5-3.7,6.8-7,6.8-12.4s-1.8-8.7-6.8-12.4c-2.7-2.1-3.9-2.1-60.4-2.3l-57.7-.3-3.8,2.2Z"/>
  <path class="cls-1" d="M142.96,347.72c-2.6.6-7.8,5.2-22.2,19.6l-18.8,18.7-6-5.6c-6.5-6-10.4-7.4-16.5-6.3-9.5,1.8-14.3,12.4-9.7,21.4,1,2,6.8,8.5,12.8,14.4,12.3,11.9,15.7,13.6,22.8,11.7,3.3-.9,8.4-5.4,28.7-25.7,13.6-13.5,25.5-26.2,26.4-28,5.1-10.7-5.5-22.9-17.5-20.2Z"/>
  <path class="cls-1" d="M192.56,371.92c-3.9,2.3-7.7,8.6-7.7,12.8s3.8,10.5,7.9,12.8c3.9,2.2,4.1,2.2,60.6,2.2,62.7,0,61.1.1,65.8-6.4,3.1-4.3,3.1-12.9,0-17.2-4.7-6.6-3.1-6.4-66-6.4-56.5,0-56.8.1-60.6,2.2Z"/>
</svg>