<?xml version="1.0" standalone="no"?>
<!DOCTYPE svg PUBLIC "-//W3C//DTD SVG 20010904//EN"
 "http://www.w3.org/TR/2001/REC-SVG-20010904/DTD/svg10.dtd">
<svg version="1.0" xmlns="http://www.w3.org/2000/svg"
 width="512.000000pt" height="512.000000pt" viewBox="0 0 512.000000 512.000000"
 preserveAspectRatio="xMidYMid meet">

<g transform="translate(0.000000,512.000000) scale(0.100000,-0.100000)"
fill="#000000" stroke="none">
<path d="M3275 4640 c-250 -40 -468 -141 -631 -293 -224 -210 -322 -447 -312
-752 l4 -124 -31 5 c-420 72 -742 196 -1060 409 -236 158 -398 307 -621 572
l-112 131 -60 -111 c-86 -161 -96 -183 -126 -272 -94 -278 -84 -561 28 -823
l35 -81 -55 20 c-31 12 -58 18 -61 15 -13 -12 -15 -334 -4 -402 34 -198 166
-466 280 -568 28 -25 27 -36 -4 -36 l-24 0 54 -160 c30 -88 69 -188 86 -222
99 -198 258 -368 445 -478 36 -21 62 -40 57 -43 -50 -31 -726 -272 -1018 -362
-66 -21 -124 -41 -128 -45 -12 -10 366 -214 544 -294 434 -193 772 -259 1334
-260 296 -1 405 7 627 44 499 85 913 267 1255 555 358 300 610 742 712 1250
41 204 54 349 56 640 2 261 3 284 24 346 24 68 39 91 379 554 l172 236 -152
-6 c-84 -3 -163 -8 -175 -11 -13 -2 -23 -2 -23 0 0 2 27 82 61 178 34 95 76
217 94 270 l33 97 -181 -64 c-100 -34 -227 -80 -282 -100 -55 -21 -140 -50
-189 -66 l-90 -28 -72 54 c-133 101 -281 169 -444 206 -99 23 -335 33 -425 19z"/>
</g>
</svg>
