<?xml version="1.0" encoding="UTF-8"?>
<svg id="_Слой_1" data-name="Слой 1" xmlns="http://www.w3.org/2000/svg" viewBox="0 0 1392 672.59">
  <defs>
    <style>
      .cls-1 {
        fill: #1074e8;
        stroke-width: 0px;
      }
    </style>
  </defs>
  <path class="cls-1" d="M654.7.69c-14.2,1.3-49.8,7.9-53.7,9.9-.8.4-3.1,1-5.1,1.4-5.1.9-26.2,8-38.2,12.7-15,6-30.1,13.3-40.2,19.5-4.9,3-9.9,6.1-11,6.7-31.5,19-66.3,50.9-90.5,83.2-2.5,3.3-4.7,6.2-5.1,6.5-1,.9-13,19.1-15.5,23.5-.6,1.1-2.8,4.9-4.8,8.5-10.1,17.6-22.6,46-22.6,51.1,0,3.2,3,2.2,14-5,19.5-12.8,19.8-13.1,22.1-19.1,2.7-7.1,10.9-21.6,17.3-30.5,2.8-3.9,6.5-9,8.1-11.5,17.1-25.8,45.9-55,74-75.1,40.4-28.9,90.1-48.6,140-55.5,15-2,22.1-2.5,42.1-2.5,24.6,0,30.9.5,54.4,4.6,22,3.8,40.1,8.9,60,16.9,6.3,2.6,14,5.6,17,6.8,12.4,4.9,50.4,28.2,63.5,39,11.5,9.5,25.8,23.4,37.4,36.3,22.7,25.3,31.4,38.1,47.1,69.5,10.3,20.3,15.7,33.8,21.6,53.7,5.4,18.3,5,16.2,10.5,52.3.6,4.1,1.3,19.2,1.4,33.5.2,14.3.3,26.3.4,26.7.1.5.8.8,1.6.8,2,0,20.6-10.7,22.3-12.8,1.1-1.3,1.2-4.1.8-11.7-.3-5.5-.8-15.2-1.1-21.5s-1-14.2-1.5-17.5-1.4-9.6-2-14-1.5-10-2.1-12.5c-.5-2.5-1.9-9.2-3-15-1.2-5.8-3-12.3-4-14.4-1-2.2-1.9-5.4-1.9-7.1,0-5.1-7-24.1-15.8-42.8-7-15-19.4-36.1-28.5-48.7-5-6.9-11.7-16.3-15-20.9-7-9.8-34-37.2-47.7-48.5-18.1-14.8-58.3-40-76.2-47.8-9.2-4-14-5.8-30.3-11.5-20.1-6.9-41.8-12.2-66-15.9-12.1-1.8-59.4-2.7-73.8-1.3Z"/>
  <path class="cls-1" d="M499.5,196.19c-11.3,1.1-36.7,8.5-51,14.9-10.2,4.5-23,11.1-29,15-3.8,2.5-8.5,5.3-10.2,6.2-1.8.9-3.3,2-3.3,2.5,0,.4-.5.8-1,.8-1.8,0-14.7,8.8-29.3,20-7.6,5.8-15.1,11.4-16.7,12.5-3.7,2.6-19.9,15.1-27,21-3,2.4-6.6,5.2-8,6.2-1.4.9-2.9,2.2-3.5,2.8-1.2,1.4-19.9,15.5-27,20.4-2.7,1.9-5.2,3.7-5.5,4.1-.3.3-2.7,2.2-5.4,4.1s-6.6,4.6-8.8,6.1c-2.1,1.6-4.1,2.8-4.3,2.8-.3,0-4.5,2.6-9.3,5.7-10.4,6.9-18.4,11.3-35.7,19.7-24.2,11.8-46.2,17.5-73.5,19.1-16.6,1-52.7-2-55.5-4.6-.5-.5-1.8-.9-3-.9-3.6,0-25.7-5.9-39.5-10.6-17.5-6-30.2-11-42.1-16.8-5.3-2.5-9.9-4.6-10.3-4.6-.3,0-.6.9-.6,1.9,0,1.3,1.6,2.7,4.8,4.3,5.2,2.7,8.1,4.4,25.7,16,12.5,8.2,38.2,21.5,52,26.8,4.4,1.7,16.8,4.9,27.5,7,17.5,3.6,21,4,34.3,4,8.2,0,18.1-.5,22-1.1,11.7-1.7,23-4,26.2-5.4,1.7-.7,5.9-2.3,9.5-3.5,16.4-5.5,31.4-12.3,48-21.4,17.3-9.6,59.3-37.8,78.5-52.7,6.2-4.8,24.8-18,44-31.1,45.1-30.9,82.6-47.4,124.5-54.8,10.1-1.8,35.5-4.1,39-3.6,1.9.3,8.7.8,15,1.1,13.3.6,22.8,1.4,25.2,2.1,2.2.6,1.2,3.1-1.5,4-9,2.8-36.2,27-45.1,40-12,17.7-20.5,44-20.6,64.2-.2,17.5,3,35.7,8.7,50.2,8.9,22.4,24,43.7,39.7,55.8,12.1,9.3,28.1,19.3,33.6,20.9,3,.8,6.8,2.2,8.4,3,9.2,4.7,35.6,9.3,53.7,9.3,9.1,0,32.5-4.2,42.8-7.6,26.9-9,51.5-28.8,70.4-56.5,4-5.9,21.7-36.2,21.7-37.2,0-.3,2.6-5.1,5.9-10.8,3.2-5.7,6.7-12,7.7-13.9,4.4-8.2,15.7-24,20.1-28.1,13.5-12.7,21.1-16.6,34.8-17.5,10.8-.8,11.8,0,6.5,5.1-3.7,3.6-9.9,13.8-15.1,25.2-11.1,24.1-12.4,48.6-3.7,67.4,4.5,9.7,17,22.7,27.3,28.2,15.5,8.5,25.3,11.5,48.5,14.7,29.7,4.2,47.4,1,82-14.8,12.2-5.5,56.6-36.9,72-50.9,3.6-3.2,10.3-9,15-12.8s9.1-7.5,9.9-8.3c1.7-1.6,22-17.8,31.1-24.7,36.6-28,70.6-45.7,105-54.9,18.6-4.9,26.3-5.9,47.5-6,34.1-.2,57.8,4.8,94.5,20,3.6,1.4,7,3,7.5,3.4.6.4,2.5,1.1,4.3,1.5,3,.6,3.2.5,3.2-2.1,0-1.5-.3-2.4-.7-2.1-.3.4-3.1-.7-6.2-2.5-15-8.5-48.9-24.9-59.2-28.5-18.6-6.6-34.4-9.5-54.5-10.1-15.5-.4-18.4-.2-31,2.2-14.5,2.8-26.8,5.9-31.9,8.1-1.6.7-9.7,4-18,7.5-8.2,3.4-16.2,7.1-17.7,8.1-1.4,1.1-2.9,1.9-3.2,1.9-1.8,0-48.6,30.8-61.6,40.5-5.2,3.9-12.3,9.1-15.8,11.6-3.4,2.4-10.4,7.5-15.5,11.3-5,3.8-15.9,11.3-24.2,16.7-8.2,5.4-16.8,11.1-19,12.7-9.2,6.5-32.5,18.9-46.3,24.4-15.3,6.3-18.9,7.4-36.2,11.3-38,8.6-63.1-.6-70.9-26-4.1-13.2-3.5-30.1,1.4-40.1,3.3-6.8,10.1-13,15.7-14.4,2.3-.5,6.6-1.9,9.3-2.9,2.8-1,12.2-2.9,21-4.1,22.8-3.1,25.5-5.2,24.3-19.4-.6-7.3-5.5-17.3-11.2-22.7-9.3-9-29.1-17-49.4-20-14.2-2.1-17.1-2-34.2.7-18.1,2.9-33.4,9-45,18-9.1,7.1-26.2,25.3-32.5,34.7-8.3,12.2-7.8,11.6-11.8,17.7-3.7,5.9-4,6.4-15.7,27-15.7,27.9-31.7,48.7-43.6,56.8-21.2,14.3-31.5,17.6-53.9,17.4-15.8-.1-27.9-2.9-40.6-9.2-28.7-14.4-44.7-32.5-54.4-61.4-3.2-9.7-4.5-18.2-4.5-30.6s1.6-19.4,6.2-28.8c4-8.1,16.4-21.4,23-24.8,6-3.1,25.1-8,34.3-8.9,19.8-1.9,32.2-5.3,34.4-9.3,5.7-10.7-13.5-34.7-37.1-46.4-20.9-10.5-25.9-12.3-45.3-16.5-11-2.3-14.3-2.6-39.5-2.8-15.1-.2-29.3-.1-31.5.1Z"/>
  <path class="cls-1" d="M363,325.29c-3.6,2.4-7.9,5.7-9.7,7.3-1.7,1.7-3.6,3-4.2,3-1.8,0-1.3,21.6.9,41.5,4.2,37.7,13,67.7,31.5,107,4.8,10.2,17.5,32.1,24.8,43,18.1,26.8,50.5,61,74.6,78.8,38.6,28.5,80.4,48.3,125.6,59.6,20.1,4.9,44.7,7.1,82.7,7.1s56.5-2,79.8-8.1c13.9-3.7,35.7-10.8,42.5-13.9,33.8-15.5,52.8-26,70.1-38.8,35.9-26.6,64.4-56,84.6-87,11.2-17.3,30.8-53.4,30.8-56.8,0-1.8-1.1-1.7-9.5.7-3.8,1.1-9.9,2.7-13.5,3.7-5.9,1.6-6.7,2-8.5,5.7-10.1,20-28.3,47.2-41.5,62.2-36.4,41.2-81.4,72.6-129,90.2-4.7,1.8-9.4,3.6-10.5,4-1.1.5-5.8,1.9-10.5,3.1s-11.4,3-15,4.1c-20.4,5.8-41.3,8.2-73.5,8.2-24.2.1-33.5-.6-48-3.3-49.9-9.4-72.3-17.6-114.8-41.9-20.2-11.5-50.4-36.3-67.4-55.3-15.1-16.8-18-20.6-28.8-36.8-36.8-55.2-54.4-111.9-54.5-174.6,0-10.9-.3-15.4-1.2-16.1s-3.3.4-7.8,3.4Z"/>
</svg>